<?xml version="1.0" encoding="UTF-8"?>
<svg id="Layer_2" data-name="Layer 2" xmlns="http://www.w3.org/2000/svg" viewBox="0 0 7314.25 1130">
  <defs>
    <style>
      .cls-1 {
        fill: #fff;
      }
    </style>
  </defs>
  <g id="Layer_1-2" data-name="Layer 1">
    <g>
      <path class="cls-1" d="M1405.19,853.69c0,11.1-3.99,20.65-11.97,28.62-7.69,7.98-17.23,11.97-28.62,11.97s-20.64-3.98-28.62-11.97c-7.98-7.97-11.96-17.52-11.96-28.62v-247.32c0-55.25,19.5-102.38,58.52-141.4,39.01-39.02,86.14-58.53,141.39-58.53s102.38,19.51,141.4,58.53c6.55,6.55,12.52,13.39,17.93,20.51,5.7-7.12,11.82-13.96,18.38-20.51,39.01-39.02,86.14-58.53,141.39-58.53s102.37,19.51,141.39,58.53c39.01,39.02,58.52,86.15,58.52,141.4v247.32c0,11.1-3.99,20.65-11.96,28.62-7.98,7.98-17.52,11.97-28.62,11.97s-20.93-3.98-28.62-11.97c-7.98-7.97-11.96-17.52-11.96-28.62v-247.32c0-32.75-11.68-60.67-35.04-83.74-23.06-23.35-50.98-35.02-83.72-35.02s-61.08,11.67-84.15,35.02c-23.07,23.07-34.6,50.99-34.6,83.74v247.32c0,11.1-3.99,20.65-11.96,28.62-7.98,7.98-17.67,11.97-29.05,11.97s-20.64-3.98-28.62-11.97c-7.98-7.97-11.96-17.52-11.96-28.62v-247.32c0-32.75-11.53-60.67-34.6-83.74-23.06-23.35-51.12-35.02-84.15-35.02s-60.65,11.67-83.72,35.02c-23.35,23.07-35.03,50.99-35.03,83.74v247.32Z"/>
      <path class="cls-1" d="M2523.52,477.78c47.56,47.56,71.34,105.09,71.34,172.58v202.9c0,11.4-3.99,21.08-11.96,29.04-7.98,7.98-17.52,11.97-28.62,11.97s-20.93-3.98-28.62-11.97c-7.98-7.97-11.96-17.65-11.96-29.04v-21.35c-46.42,41.58-100.68,62.37-162.76,62.37-67.22,0-124.73-23.92-172.57-71.77-47.57-47.56-71.35-104.94-71.35-172.14s23.78-125.03,71.35-172.58c47.84-47.56,105.36-71.35,172.57-71.35s125.02,23.79,172.57,71.35ZM2350.95,487.61c-45,0-83.3,15.8-114.91,47.41-31.89,31.9-47.84,70.35-47.84,115.34s15.95,83.02,47.84,114.9c31.62,31.61,69.91,47.41,114.91,47.41s83.3-15.8,114.91-47.41c31.88-31.88,47.84-70.2,47.84-114.9s-15.96-83.44-47.84-115.34c-31.62-31.61-69.92-47.41-114.91-47.41Z"/>
      <path class="cls-1" d="M2761.46,853.69c0,11.1-3.99,20.65-11.97,28.62-7.69,7.98-17.23,11.97-28.62,11.97s-20.64-3.98-28.62-11.97c-7.98-7.97-11.96-17.52-11.96-28.62v-247.32c0-55.25,19.5-102.38,58.52-141.4,39.01-39.02,86.14-58.53,141.39-58.53s102.38,19.51,141.4,58.53c6.55,6.55,12.52,13.39,17.93,20.51,5.7-7.12,11.82-13.96,18.38-20.51,39.01-39.02,86.14-58.53,141.39-58.53s102.37,19.51,141.39,58.53c39.01,39.02,58.52,86.15,58.52,141.4v247.32c0,11.1-3.99,20.65-11.96,28.62-7.98,7.98-17.52,11.97-28.62,11.97s-20.93-3.98-28.62-11.97c-7.98-7.97-11.96-17.52-11.96-28.62v-247.32c0-32.75-11.68-60.67-35.04-83.74-23.06-23.35-50.98-35.02-83.72-35.02s-61.08,11.67-84.15,35.02c-23.07,23.07-34.6,50.99-34.6,83.74v247.32c0,11.1-3.99,20.65-11.96,28.62-7.98,7.98-17.67,11.97-29.05,11.97s-20.64-3.98-28.62-11.97c-7.98-7.97-11.96-17.52-11.96-28.62v-247.32c0-32.75-11.53-60.67-34.6-83.74-23.06-23.35-51.12-35.02-84.15-35.02s-60.65,11.67-83.72,35.02c-23.35,23.07-35.03,50.99-35.03,83.74v247.32Z"/>
      <path class="cls-1" d="M3565.83,853.69c0,11.1-3.99,20.65-11.97,28.62-7.69,7.98-17.23,11.97-28.62,11.97s-20.64-3.98-28.62-11.97c-7.98-7.97-11.96-17.52-11.96-28.62v-247.32c0-55.25,19.5-102.38,58.52-141.4,39.01-39.02,86.14-58.53,141.39-58.53s102.38,19.51,141.4,58.53c6.55,6.55,12.52,13.39,17.93,20.51,5.7-7.12,11.82-13.96,18.38-20.51,39.01-39.02,86.14-58.53,141.39-58.53s102.37,19.51,141.39,58.53c39.01,39.02,58.52,86.15,58.52,141.4v247.32c0,11.1-3.99,20.65-11.96,28.62-7.98,7.98-17.52,11.97-28.62,11.97s-20.93-3.98-28.62-11.97c-7.98-7.97-11.96-17.52-11.96-28.62v-247.32c0-32.75-11.68-60.67-35.04-83.74-23.06-23.35-50.98-35.02-83.72-35.02s-61.08,11.67-84.15,35.02c-23.07,23.07-34.6,50.99-34.6,83.74v247.32c0,11.1-3.99,20.65-11.96,28.62-7.98,7.98-17.67,11.97-29.05,11.97s-20.64-3.98-28.62-11.97c-7.98-7.97-11.96-17.52-11.96-28.62v-247.32c0-32.75-11.53-60.67-34.6-83.74-23.06-23.35-51.12-35.02-84.15-35.02s-60.65,11.67-83.72,35.02c-23.35,23.07-35.03,50.99-35.03,83.74v247.32Z"/>
      <path class="cls-1" d="M4511.58,406.44c67.49,0,125.02,23.79,172.57,71.35,47.56,47.56,71.34,105.09,71.34,172.58s-23.78,124.58-71.34,172.14c-47.56,47.85-105.08,71.77-172.57,71.77s-124.73-23.92-172.57-71.77c-47.57-47.56-71.35-104.94-71.35-172.14s23.78-125.03,71.35-172.58c47.84-47.56,105.36-71.35,172.57-71.35ZM4396.67,535.02c-31.89,31.9-47.84,70.35-47.84,115.34s15.95,83.02,47.84,114.9c31.62,31.61,69.91,47.41,114.91,47.41s83.3-15.8,114.91-47.41c31.88-31.88,47.84-70.2,47.84-114.9s-15.96-83.44-47.84-115.34c-31.62-31.61-69.92-47.41-114.91-47.41s-83.3,15.8-114.91,47.41Z"/>
      <path class="cls-1" d="M5188.64,749.47c11.11-.28,20.64,3.56,28.62,11.53,8.26,7.69,12.53,17.09,12.82,28.2.28,11.1-3.42,20.8-11.11,29.04-23.06,24.21-49.97,42.87-80.73,55.97-30.47,13.39-62.51,20.08-96.11,20.08-67.22,0-124.73-23.92-172.57-71.77-47.57-47.56-71.35-104.94-71.35-172.14s23.78-125.03,71.35-172.58c47.84-47.56,105.36-71.35,172.57-71.35,33.6,0,65.64,6.56,96.11,19.66l2.14.85c29.9,13.11,56.1,31.48,78.59,55.12,7.69,8.26,11.39,17.94,11.11,29.04-.29,11.4-4.55,20.93-12.82,28.62-7.98,7.69-17.51,11.4-28.62,11.1-11.4-.28-20.93-4.55-28.62-12.82-14.81-15.66-32.19-27.9-52.11-36.73l-1.71-.42c-20.22-8.83-41.58-13.24-64.07-13.24-45,0-83.3,15.8-114.91,47.41-31.89,31.9-47.84,70.35-47.84,115.34s15.95,83.02,47.84,114.9c31.62,31.61,69.91,47.41,114.91,47.41,22.49,0,43.85-4.26,64.07-12.82,20.51-8.81,38.45-21.35,53.83-37.58,7.69-8.26,17.22-12.54,28.62-12.82Z"/>
      <path class="cls-1" d="M5375.75,468.38c46.41-41.29,100.67-61.94,162.75-61.94,67.49,0,125.02,23.79,172.58,71.35,47.55,47.56,71.34,105.09,71.34,172.58v202.9c0,11.4-3.99,21.08-11.97,29.04-7.98,7.98-17.51,11.97-28.62,11.97s-20.93-3.98-28.62-11.97c-7.98-7.97-11.96-17.65-11.96-29.04v-202.9c0-44.99-15.95-83.44-47.84-115.34-31.61-31.61-69.92-47.41-114.91-47.41s-83.3,15.8-114.9,47.41c-31.9,31.9-47.84,70.35-47.84,115.34v202.9c0,11.4-3.99,21.08-11.97,29.04-7.69,7.98-17.23,11.97-28.62,11.97s-20.64-3.98-28.62-11.97c-7.98-7.97-11.96-17.65-11.96-29.04V324.86c0-11.1,3.98-20.65,11.96-28.62,7.98-7.97,17.52-11.97,28.62-11.97s20.93,4,28.62,11.97c7.98,7.97,11.97,17.52,11.97,28.62v143.52Z"/>
      <path class="cls-1" d="M6249.31,766.54c11.1,1.14,20.21,5.99,27.34,14.53,7.11,8.54,10.25,18.51,9.4,29.91-1.14,11.1-5.98,20.21-14.52,27.33-24.77,17.94-51.97,31.75-81.59,41.44-29.62,9.68-61.38,14.53-95.26,14.53-70.06,0-129-23.92-176.84-71.77-47.57-47.56-71.35-104.94-71.35-172.14s23.78-125.03,71.35-172.58c47.84-47.56,105.36-71.35,172.57-71.35s125.02,23.79,172.57,71.35c47.56,47.56,71.34,105.09,71.34,172.58,0,11.1-3.99,20.63-11.96,28.62-7.98,7.97-17.52,11.95-28.62,11.95h-360.96c7.4,28.49,21.64,53.26,42.72,74.33,31.62,31.61,71.34,47.41,119.18,47.41,25.06,0,47.7-3.13,67.93-9.39,20.21-6.27,39.15-15.53,56.81-27.77,8.82-7.12,18.8-10.11,29.91-8.98ZM5932.78,609.36h315.26c-7.41-28.47-21.65-53.26-42.72-74.33-31.62-31.61-69.92-47.41-114.91-47.41s-83.3,15.8-114.91,47.41c-21.08,21.08-35.31,45.86-42.72,74.33Z"/>
      <path class="cls-1" d="M6763.19,749.47c11.11-.28,20.64,3.56,28.62,11.53,8.26,7.69,12.53,17.09,12.82,28.2.28,11.1-3.42,20.8-11.11,29.04-23.06,24.21-49.97,42.87-80.73,55.97-30.47,13.39-62.51,20.08-96.11,20.08-67.22,0-124.73-23.92-172.57-71.77-47.57-47.56-71.35-104.94-71.35-172.14s23.78-125.03,71.35-172.58c47.84-47.56,105.36-71.35,172.57-71.35,33.6,0,65.64,6.56,96.11,19.66l2.14.85c29.9,13.11,56.1,31.48,78.59,55.12,7.69,8.26,11.39,17.94,11.11,29.04-.29,11.4-4.55,20.93-12.82,28.62-7.98,7.69-17.51,11.4-28.62,11.1-11.4-.28-20.93-4.55-28.62-12.82-14.81-15.66-32.19-27.9-52.11-36.73l-1.71-.42c-20.22-8.83-41.58-13.24-64.07-13.24-45,0-83.3,15.8-114.91,47.41-31.89,31.9-47.84,70.35-47.84,115.34s15.95,83.02,47.84,114.9c31.62,31.61,69.91,47.41,114.91,47.41,22.49,0,43.85-4.26,64.07-12.82,20.51-8.81,38.45-21.35,53.83-37.58,7.69-8.26,17.22-12.54,28.62-12.82Z"/>
      <path class="cls-1" d="M7302.28,882.31c-7.98,7.98-17.51,11.97-28.62,11.97s-21.08-3.98-29.04-11.97c-7.98-7.97-11.96-17.52-11.96-28.62,0-44.99-15.8-83.3-47.42-114.9-31.89-31.9-70.2-47.85-114.91-47.85h-120.03v162.76c0,11.1-3.99,20.65-11.97,28.62-7.69,7.98-17.23,11.97-28.62,11.97s-20.64-3.98-28.62-11.97c-7.98-7.97-11.96-17.52-11.96-28.62V325.28c0-11.1,3.98-20.63,11.96-28.62,7.98-7.97,17.52-11.97,28.62-11.97s20.93,4,28.62,11.97c7.98,7.98,11.97,17.52,11.97,28.62v284.5h120.03c44.71,0,83.02-15.8,114.91-47.41,31.62-31.9,47.42-70.35,47.42-115.34,0-11.1,3.98-20.63,11.96-28.62,7.97-7.97,17.66-11.97,29.04-11.97s20.64,4,28.62,11.97c7.98,7.98,11.97,17.52,11.97,28.62,0,67.49-23.93,125.03-71.77,172.58-11.39,11.67-23.92,21.93-37.59,30.76,13.67,9.11,26.2,19.36,37.59,30.74,47.84,47.58,71.77,105.09,71.77,172.58,0,11.1-3.99,20.65-11.97,28.62Z"/>
    </g>
    <g>
      <path class="cls-1" d="M445.39,248.43c4.63,5.05,8.95,10.4,12.81,16.11h451.08c-7.68-5.58-15.5-10.98-23.52-16.11h-440.38Z"/>
      <path class="cls-1" d="M151.45,58.32h381.86c-5.68-3.82-11.46-7.48-17.37-10.96H168.94c-5.93,3.5-11.79,7.12-17.48,10.96Z"/>
      <path class="cls-1" d="M474.92,298.69c.76,2.29,1.57,4.56,2.21,6.9.99,3.61,2.22,7.09,3.56,10.5h488.65c-5.88-5.97-11.94-11.75-18.13-17.4h-476.3Z"/>
      <path class="cls-1" d="M501.84,348.96c7.13,7.42,15.28,13.74,24.25,18.69h487.37c-4.7-6.36-9.58-12.58-14.59-18.69h-497.04Z"/>
      <path class="cls-1" d="M91.32,109.87h502.39c-3.9-4.19-7.92-8.26-12.01-12.24H103.27c-4.08,3.98-8.07,8.06-11.95,12.24Z"/>
      <path class="cls-1" d="M633.19,161.43c-2.87-4.59-5.85-9.1-8.93-13.53H60.76c-3.08,4.44-6.05,8.95-8.91,13.53h581.34Z"/>
      <path class="cls-1" d="M738.61,399.22c13.06,5.7,25.58,12.4,37.5,19.98h270.55c-3.78-6.76-7.71-13.42-11.8-19.98h-296.24Z"/>
      <path class="cls-1" d="M290.9,212.98c15.98-6.38,33.35-9.99,51.57-9.99s35.4,3.58,51.46,9.99h425.39c-12.53-5.46-25.32-10.43-38.39-14.82H31.87c-2.28,4.88-4.45,9.82-6.51,14.82h265.53Z"/>
      <path class="cls-1" d="M859.78,801.34c-6.91,10.63-14.53,20.74-22.8,30.29h234.95c4.05-9.93,7.76-20.04,11.15-30.29h-223.3Z"/>
      <path class="cls-1" d="M815.5,449.49c7.26,6.71,14.13,13.82,20.64,21.27h235.45c-2.94-7.18-6.05-14.27-9.33-21.27h-246.77Z"/>
      <path class="cls-1" d="M885.55,751.08c-3.87,9.96-8.28,19.64-13.24,29h217.23c2.67-9.56,5.11-19.21,7.19-29h-211.18Z"/>
      <path class="cls-1" d="M226.75,264.54c3.87-5.72,8.27-11.04,12.93-16.11H13.09c-1.53,5.32-2.92,10.69-4.19,16.11h217.86Z"/>
      <path class="cls-1" d="M1047.24,883.19c5.72-10.3,11.03-20.84,15.99-31.58h-245.37c-12.39,11.72-25.86,22.3-40.26,31.58h269.64Z"/>
      <path class="cls-1" d="M899.72,700.81c-1.7,9.41-3.88,18.66-6.52,27.71h207.73c1.49-9.16,2.79-18.38,3.74-27.71h-204.96Z"/>
      <path class="cls-1" d="M1107.16,650.55h-203c0,.37.03.75.03,1.12,0,8.53-.45,16.96-1.21,25.3h203.53c.44-8.38.68-16.81.68-25.3,0-.38-.03-.75-.03-1.12Z"/>
      <path class="cls-1" d="M858.34,499.75c4.84,7.29,9.34,14.81,13.49,22.55h217.45c-2.14-7.6-4.45-15.12-6.95-22.55h-223.98Z"/>
      <path class="cls-1" d="M884.66,550.02c3.11,7.78,5.87,15.73,8.27,23.84h207.82c-1.32-8.02-2.84-15.96-4.55-23.84h-211.53Z"/>
      <path class="cls-1" d="M899.31,600.28c1.57,8.26,2.79,16.63,3.6,25.13h203.52c-.46-8.44-1.16-16.81-2.05-25.13h-205.07Z"/>
      <path class="cls-1" d="M286.83,470.75c-12.55-5.45-24-12.68-34.18-21.27H17.03c2.37,7.19,5.01,14.27,7.84,21.27h261.97Z"/>
      <path class="cls-1" d="M970.22,986.29c10.68-10.89,20.84-22.29,30.45-34.15H257.05c9.61,11.87,19.77,23.26,30.45,34.15h682.72Z"/>
      <path class="cls-1" d="M1014.13,934.74c7.83-10.63,15.25-21.59,22.2-32.87h-292.75c-34.95,16.09-73.78,25.13-114.71,25.13s-79.77-9.04-114.72-25.13H221.4c6.95,11.28,14.36,22.23,22.2,32.87h770.54Z"/>
      <path class="cls-1" d="M910.66,1037.85c15.02-10.99,29.37-22.82,42.99-35.44H304.07c13.62,12.62,27.97,24.45,42.99,35.44h563.59Z"/>
      <path class="cls-1" d="M480.12,883.19c-14.4-9.28-27.87-19.86-40.26-31.58h-245.37c4.96,10.74,10.28,21.28,15.99,31.58h269.64Z"/>
      <path class="cls-1" d="M889.15,1052.67H368.58c21.47,13.98,44.1,26.29,67.76,36.73h385.04c23.65-10.44,46.29-22.75,67.76-36.73Z"/>
      <path class="cls-1" d="M420.75,831.63c-8.27-9.55-15.89-19.66-22.8-30.29h-223.3c3.39,10.25,7.1,20.35,11.15,30.29h234.95Z"/>
      <path class="cls-1" d="M470.48,1102.93c49.61,17.46,102.88,27.07,158.38,27.07s108.77-9.6,158.38-27.07h-316.76Z"/>
      <path class="cls-1" d="M410.01,6.77c-21.94-4.43-44.53-6.77-67.54-6.77s-45.89,2.35-67.81,6.77h135.35Z"/>
      <path class="cls-1" d="M385.41,780.08c-4.96-9.36-9.37-19.04-13.24-29h-211.18c2.07,9.79,4.52,19.44,7.19,29h217.23Z"/>
      <path class="cls-1" d="M362.46,573.86c.34-8.1-.37-16.08-1.91-23.84H70.04c6.25,8.22,12.8,16.21,19.77,23.84h272.65Z"/>
      <path class="cls-1" d="M225.81,419.2c-4.16-6.35-7.81-13.02-10.9-19.98H4.67c1.13,6.72,2.46,13.37,3.98,19.98h217.16Z"/>
      <path class="cls-1" d="M350.74,522.31c-4.33-8.19-9.75-15.79-16.18-22.55H38.22c3.96,7.66,8.11,15.22,12.63,22.55h299.88Z"/>
      <path class="cls-1" d="M205.14,367.64c-1.12-6.13-1.81-12.36-2.1-18.69H0c.12,6.26.35,12.49.81,18.69h204.34Z"/>
      <path class="cls-1" d="M354.88,625.41c.82-8.4,2.04-16.78,3.62-25.13H116.71c10.23,8.99,21.03,17.37,32.34,25.13h205.83Z"/>
      <path class="cls-1" d="M205.4,316.09c1.15-5.95,2.71-11.74,4.6-17.4H2.72c-.74,5.76-1.33,11.56-1.79,17.4h204.47Z"/>
      <path class="cls-1" d="M364.52,728.52c-2.64-9.05-4.81-18.3-6.52-27.71h-204.96c.95,9.33,2.26,18.55,3.74,27.71h207.73Z"/>
      <path class="cls-1" d="M151.21,676.97h203.53c-.76-8.34-1.21-16.77-1.21-25.3,0-.37.03-.75.03-1.12h-203c0,.37-.03.75-.03,1.12,0,8.49.24,16.92.68,25.3Z"/>
    </g>
  </g>
</svg>